<svg width="458" height="352" viewBox="0 0 458 352" fill="none" xmlns="http://www.w3.org/2000/svg">
<mask id="mask0_6009_17" style="mask-type:alpha" maskUnits="userSpaceOnUse" x="0" y="0" width="458" height="352">
<path d="M120.724 351.457C113.36 351.457 106.252 351.287 99.4393 350.945C62.0357 349.075 34.6789 342.246 18.1286 330.647C1.1956 318.782 -3.90836 302.134 2.95615 281.16C23.7984 217.491 44.2498 178.029 57.782 151.918C63.8729 140.166 68.6843 130.882 71.3005 123.585L71.686 123.725L71.3005 123.585C75.6527 111.442 94.3654 95.321 120.134 81.51C147.865 66.6492 177.56 57.6496 201.606 56.8212C234.769 55.6785 270.8 46.1295 295.186 38.3191C323.592 29.2211 353.03 17.0202 373.929 5.68052C387.421 -1.64052 401.237 -1.8893 413.881 4.9588C435.773 16.8179 451.331 48.3766 454.483 87.3165C455.975 105.772 457.52 124.859 457.867 143.277C458.253 163.641 457.083 180.973 454.294 196.263C450.962 214.519 445.297 230.424 436.978 244.883C427.689 261.026 415.319 275.028 399.159 287.691C371.562 309.318 295.35 332.569 213.829 344.234C180.479 349.007 148.737 351.457 120.724 351.457ZM394.914 0.828075C388.104 0.828075 381.171 2.68705 374.32 6.40498C353.377 17.7693 323.888 29.992 295.437 39.1037C271.003 46.9305 234.892 56.4987 201.633 57.6441C177.71 58.4697 148.144 67.431 120.519 82.2372C94.9231 95.9552 76.358 111.907 72.0714 123.867C69.4361 131.218 64.6137 140.521 58.5092 152.301C44.9879 178.389 24.5584 217.813 3.73527 281.42C-3.00348 302.008 1.99659 318.345 18.5988 329.98C35.0206 341.486 62.2326 348.266 99.4803 350.131C132.146 351.765 171.646 349.447 213.711 343.427C295.106 331.782 371.157 308.599 398.654 287.052C414.728 274.454 427.03 260.531 436.268 244.478C444.54 230.102 450.174 214.284 453.488 196.121C459.707 162.044 456.634 124.091 453.665 87.3876C450.538 48.7211 435.144 17.4139 413.49 5.686C407.514 2.44647 401.264 0.828075 394.914 0.828075Z" fill="#7456AB"/>
</mask>
<g mask="url(#mask0_6009_17)">
<path d="M120.724 351.457C113.36 351.457 106.252 351.287 99.4393 350.945C62.0357 349.075 34.6789 342.246 18.1286 330.647C1.1956 318.782 -3.90836 302.134 2.95615 281.16C23.7984 217.491 44.2498 178.029 57.782 151.918C63.8729 140.166 68.6843 130.882 71.3005 123.585L71.686 123.725L71.3005 123.585C75.6527 111.442 94.3654 95.321 120.134 81.51C147.865 66.6492 177.56 57.6496 201.606 56.8212C234.769 55.6785 270.8 46.1295 295.186 38.3191C323.592 29.2211 353.03 17.0202 373.929 5.68052C387.421 -1.64052 401.237 -1.8893 413.881 4.9588C435.773 16.8179 451.331 48.3766 454.483 87.3165C455.975 105.772 457.52 124.859 457.867 143.277C458.253 163.641 457.083 180.973 454.294 196.263C450.962 214.519 445.297 230.424 436.978 244.883C427.689 261.026 415.319 275.028 399.159 287.691C371.562 309.318 295.35 332.569 213.829 344.234C180.479 349.007 148.737 351.457 120.724 351.457ZM394.914 0.828075C388.104 0.828075 381.171 2.68705 374.32 6.40498C353.377 17.7693 323.888 29.992 295.437 39.1037C271.003 46.9305 234.892 56.4987 201.633 57.6441C177.71 58.4697 148.144 67.431 120.519 82.2372C94.9231 95.9552 76.358 111.907 72.0714 123.867C69.4361 131.218 64.6137 140.521 58.5092 152.301C44.9879 178.389 24.5584 217.813 3.73527 281.42C-3.00348 302.008 1.99659 318.345 18.5988 329.98C35.0206 341.486 62.2326 348.266 99.4803 350.131C132.146 351.765 171.646 349.447 213.711 343.427C295.106 331.782 371.157 308.599 398.654 287.052C414.728 274.454 427.03 260.531 436.268 244.478C444.54 230.102 450.174 214.284 453.488 196.121C459.707 162.044 456.634 124.091 453.665 87.3876C450.538 48.7211 435.144 17.4139 413.49 5.686C407.514 2.44647 401.264 0.828075 394.914 0.828075Z" fill="#A06BFF"/>
</g>
<mask id="mask1_6009_17" style="mask-type:alpha" maskUnits="userSpaceOnUse" x="17" y="12" width="421" height="326">
<path d="M125.284 337.651C119.459 337.651 113.816 337.533 108.376 337.296C74.067 335.795 48.9737 329.723 33.7876 319.247C18.4375 308.657 13.6971 293.755 19.6977 274.955C37.4044 218.037 55.8956 180.265 68.1293 155.273C73.8729 143.539 78.4083 134.272 81.0136 126.882C85.229 114.939 102.578 99.4135 126.29 86.3625C151.682 72.3874 179.309 63.7842 202.09 62.7563C232.681 61.5535 265.866 52.9558 288.316 45.9573C314.691 37.7341 341.086 27.1599 360.733 16.941C373.134 10.4948 385.813 10.4756 397.404 16.8863C417.525 28.0128 431.828 57.0482 434.728 92.6666C437.498 126.267 440.363 161.014 434.496 192.93C431.407 209.74 426.18 224.402 418.517 237.751C409.971 252.642 398.61 265.572 383.793 277.284C358.418 297.473 288.335 319.365 213.367 330.524C181.739 335.226 151.657 337.651 125.284 337.651ZM379.427 12.8677C373.361 12.8677 367.193 14.4533 361.091 17.6245C341.406 27.8624 314.964 38.4586 288.548 46.6927C266.052 53.7048 232.798 62.3189 202.125 63.5273C179.459 64.5497 151.955 73.1173 126.665 87.0377C103.111 100.001 85.8988 115.368 81.7435 127.139C79.1245 134.573 74.5783 143.856 68.8264 155.612C56.6009 180.585 38.1288 218.322 20.4386 275.187C14.5528 293.629 19.192 308.238 34.2305 318.613C49.2936 329.004 74.2529 335.029 108.414 336.525C138.434 337.84 174.689 335.497 213.26 329.756C288.108 318.616 358.038 296.789 383.32 276.674C398.063 265.026 409.359 252.166 417.856 237.362C425.475 224.09 430.671 209.511 433.744 192.786C439.592 160.97 436.732 126.276 433.966 92.724C431.084 57.3599 416.934 28.5596 397.035 17.5561C391.376 14.4314 385.452 12.8677 379.427 12.8677Z" fill="#7456AB"/>
</mask>
<g mask="url(#mask1_6009_17)">
<path d="M125.284 337.651C119.459 337.651 113.816 337.533 108.376 337.296C74.067 335.795 48.9737 329.723 33.7876 319.247C18.4375 308.657 13.6971 293.755 19.6977 274.955C37.4044 218.037 55.8956 180.265 68.1293 155.273C73.8729 143.539 78.4083 134.272 81.0136 126.882C85.229 114.939 102.578 99.4135 126.29 86.3625C151.682 72.3874 179.309 63.7842 202.09 62.7563C232.681 61.5535 265.866 52.9558 288.316 45.9573C314.691 37.7341 341.086 27.1599 360.733 16.941C373.134 10.4948 385.813 10.4756 397.404 16.8863C417.525 28.0128 431.828 57.0482 434.728 92.6666C437.498 126.267 440.363 161.014 434.496 192.93C431.407 209.74 426.18 224.402 418.517 237.751C409.971 252.642 398.61 265.572 383.793 277.284C358.418 297.473 288.335 319.365 213.367 330.524C181.739 335.226 151.657 337.651 125.284 337.651ZM379.427 12.8677C373.361 12.8677 367.193 14.4533 361.091 17.6245C341.406 27.8624 314.964 38.4586 288.548 46.6927C266.052 53.7048 232.798 62.3189 202.125 63.5273C179.459 64.5497 151.955 73.1173 126.665 87.0377C103.111 100.001 85.8988 115.368 81.7435 127.139C79.1245 134.573 74.5783 143.856 68.8264 155.612C56.6009 180.585 38.1288 218.322 20.4386 275.187C14.5528 293.629 19.192 308.238 34.2305 318.613C49.2936 329.004 74.2529 335.029 108.414 336.525C138.434 337.84 174.689 335.497 213.26 329.756C288.108 318.616 358.038 296.789 383.32 276.674C398.063 265.026 409.359 252.166 417.856 237.362C425.475 224.09 430.671 209.511 433.744 192.786C439.592 160.97 436.732 126.276 433.966 92.724C431.084 57.3599 416.934 28.5596 397.035 17.5561C391.376 14.4314 385.452 12.8677 379.427 12.8677Z" fill="#A06BFF"/>
</g>
<mask id="mask2_6009_17" style="mask-type:alpha" maskUnits="userSpaceOnUse" x="34" y="24" width="384" height="300">
<path d="M129.893 323.873C125.58 323.873 121.383 323.799 117.307 323.651C86.0929 322.522 63.2605 317.205 49.444 307.853C35.6767 298.536 31.3026 285.378 36.4449 268.746C51.1334 218.215 67.0795 183.496 78.7227 158.148C84.0071 146.645 88.1788 137.558 90.7349 130.174C94.8765 118.249 110.473 103.683 132.455 91.2093C155.514 78.1227 181.075 69.9159 202.582 68.6884C253.364 66.3975 317.094 43.2179 347.543 28.1985C358.853 22.6271 370.4 22.8376 380.941 28.8109C399.288 39.2047 412.331 65.7196 414.982 98.0109C417.429 127.044 420.198 159.95 414.706 189.59C411.858 204.953 407.071 218.371 400.067 230.61C392.262 244.249 381.915 256.108 368.434 266.868C356.816 276.275 335.408 286.097 306.528 295.269C278.788 304.08 245.538 311.729 212.907 316.811C183.005 321.464 154.596 323.873 129.893 323.873ZM363.924 24.8934C358.606 24.8934 353.207 26.2083 347.86 28.8437C317.359 43.8904 253.507 67.1111 202.617 69.4074C181.22 70.6294 155.774 78.8034 132.808 91.8353C110.976 104.225 95.4999 118.645 91.4129 130.409C88.8458 137.826 84.6659 146.926 79.3733 158.449C67.7411 183.778 51.8087 218.469 37.131 268.954C32.0927 285.253 36.371 298.137 49.8458 307.257C63.5502 316.532 86.2542 321.806 117.332 322.929C144.705 323.919 177.718 321.557 212.792 316.095C245.39 311.018 278.6 303.378 306.307 294.578C335.099 285.433 356.425 275.657 367.978 266.302C381.39 255.599 391.68 243.806 399.435 230.249C406.398 218.081 411.161 204.737 413.993 189.456C419.468 159.912 416.702 127.055 414.258 98.0683C411.625 66.0148 398.722 39.7159 380.581 29.4369C375.241 26.4079 369.629 24.8934 363.924 24.8934Z" fill="#7456AB"/>
</mask>
<g mask="url(#mask2_6009_17)">
<path d="M129.893 323.873C125.58 323.873 121.383 323.799 117.307 323.651C86.0929 322.522 63.2605 317.205 49.444 307.853C35.6767 298.536 31.3026 285.378 36.4449 268.746C51.1334 218.215 67.0795 183.496 78.7227 158.148C84.0071 146.645 88.1788 137.558 90.7349 130.174C94.8765 118.249 110.473 103.683 132.455 91.2093C155.514 78.1227 181.075 69.9159 202.582 68.6884C253.364 66.3975 317.094 43.2179 347.543 28.1985C358.853 22.6271 370.4 22.8376 380.941 28.8109C399.288 39.2047 412.331 65.7196 414.982 98.0109C417.429 127.044 420.198 159.95 414.706 189.59C411.858 204.953 407.071 218.371 400.067 230.61C392.262 244.249 381.915 256.108 368.434 266.868C356.816 276.275 335.408 286.097 306.528 295.269C278.788 304.08 245.538 311.729 212.907 316.811C183.005 321.464 154.596 323.873 129.893 323.873ZM363.924 24.8934C358.606 24.8934 353.207 26.2083 347.86 28.8437C317.359 43.8904 253.507 67.1111 202.617 69.4074C181.22 70.6294 155.774 78.8034 132.808 91.8353C110.976 104.225 95.4999 118.645 91.4129 130.409C88.8458 137.826 84.6659 146.926 79.3733 158.449C67.7411 183.778 51.8087 218.469 37.131 268.954C32.0927 285.253 36.371 298.137 49.8458 307.257C63.5502 316.532 86.2542 321.806 117.332 322.929C144.705 323.919 177.718 321.557 212.792 316.095C245.39 311.018 278.6 303.378 306.307 294.578C335.099 285.433 356.425 275.657 367.978 266.302C381.39 255.599 391.68 243.806 399.435 230.249C406.398 218.081 411.161 204.737 413.993 189.456C419.468 159.912 416.702 127.055 414.258 98.0683C411.625 66.0148 398.722 39.7159 380.581 29.4369C375.241 26.4079 369.629 24.8934 363.924 24.8934Z" fill="#A06BFF"/>
</g>
<mask id="mask3_6009_17" style="mask-type:alpha" maskUnits="userSpaceOnUse" x="51" y="36" width="347" height="275">
<path d="M134.563 310.133C131.722 310.133 128.945 310.097 126.222 310.023C98.1023 309.263 77.5334 304.706 65.0838 296.478C52.9048 288.427 48.9026 277.01 53.1864 262.546C64.9772 217.931 79.2338 184.576 89.644 160.224C94.1301 149.729 98.0039 140.666 100.451 133.471C104.458 121.738 118.726 107.754 138.611 96.0619C159.35 83.8693 182.844 76.0534 203.068 74.6237C223.194 73.5766 247.921 68.9456 274.584 61.2309C295.984 55.0389 317.767 47.1028 334.35 39.4591C344.568 34.757 354.99 35.1999 364.484 40.744C381.048 50.4134 392.828 74.405 395.228 103.358C397.855 133.747 399.643 160.962 394.908 186.255C392.303 200.172 387.951 212.348 381.606 223.478C374.544 235.862 365.208 246.652 353.065 256.461C342.491 265.201 323.092 274.345 296.965 282.904C271.97 291.092 241.948 298.271 212.426 303.118C184.279 307.73 157.565 310.133 134.563 310.133ZM348.401 36.9003C343.839 36.9003 339.216 37.9528 334.628 40.0633C318.018 47.7206 296.2 55.6704 274.77 61.8706C248.058 69.599 223.279 74.2409 203.109 75.288C182.991 76.7123 159.604 84.4926 138.953 96.636C119.202 108.249 105.043 122.101 101.088 133.684C98.6326 140.904 94.7534 149.977 90.2618 160.483C79.8598 184.817 65.6141 218.144 53.8343 262.724C49.6407 276.882 53.55 288.047 65.4556 295.914C77.8013 304.075 98.2527 308.594 126.244 309.351C150.976 310.015 180.742 307.631 212.325 302.445C241.814 297.604 271.801 290.436 296.763 282.257C322.81 273.724 342.133 264.621 352.647 255.93C364.727 246.173 374.008 235.446 381.029 223.136C387.336 212.072 391.663 199.964 394.255 186.123C398.973 160.915 397.188 133.75 394.566 103.408C392.183 74.6701 380.529 50.8781 364.15 41.3181C359.107 38.3765 353.8 36.9003 348.401 36.9003Z" fill="#7456AB"/>
</mask>
<g mask="url(#mask3_6009_17)">
<path d="M134.563 310.133C131.722 310.133 128.945 310.097 126.222 310.023C98.1023 309.263 77.5334 304.706 65.0838 296.478C52.9048 288.427 48.9026 277.01 53.1864 262.546C64.9772 217.931 79.2338 184.576 89.644 160.224C94.1301 149.729 98.0039 140.666 100.451 133.471C104.458 121.738 118.726 107.754 138.611 96.0619C159.35 83.8693 182.844 76.0534 203.068 74.6237C223.194 73.5766 247.921 68.9456 274.584 61.2309C295.984 55.0389 317.767 47.1028 334.35 39.4591C344.568 34.757 354.99 35.1999 364.484 40.744C381.048 50.4134 392.828 74.405 395.228 103.358C397.855 133.747 399.643 160.962 394.908 186.255C392.303 200.172 387.951 212.348 381.606 223.478C374.544 235.862 365.208 246.652 353.065 256.461C342.491 265.201 323.092 274.345 296.965 282.904C271.97 291.092 241.948 298.271 212.426 303.118C184.279 307.73 157.565 310.133 134.563 310.133ZM348.401 36.9003C343.839 36.9003 339.216 37.9528 334.628 40.0633C318.018 47.7206 296.2 55.6704 274.77 61.8706C248.058 69.599 223.279 74.2409 203.109 75.288C182.991 76.7123 159.604 84.4926 138.953 96.636C119.202 108.249 105.043 122.101 101.088 133.684C98.6326 140.904 94.7534 149.977 90.2618 160.483C79.8598 184.817 65.6141 218.144 53.8343 262.724C49.6407 276.882 53.55 288.047 65.4556 295.914C77.8013 304.075 98.2527 308.594 126.244 309.351C150.976 310.015 180.742 307.631 212.325 302.445C241.814 297.604 271.801 290.436 296.763 282.257C322.81 273.724 342.133 264.621 352.647 255.93C364.727 246.173 374.008 235.446 381.029 223.136C387.336 212.072 391.663 199.964 394.255 186.123C398.973 160.915 397.188 133.75 394.566 103.408C392.183 74.6701 380.529 50.8781 364.15 41.3181C359.107 38.3765 353.8 36.9003 348.401 36.9003Z" fill="#A06BFF"/>
</g>
<mask id="mask4_6009_17" style="mask-type:alpha" maskUnits="userSpaceOnUse" x="68" y="48" width="310" height="249">
<path d="M139.309 296.442C137.895 296.442 136.501 296.431 135.12 296.409C110.095 296.021 91.7874 292.221 80.7046 285.113C70.1167 278.323 66.489 268.642 69.9281 256.338C78.914 217.037 91.6999 184.609 101.036 160.932C104.737 151.544 107.936 143.435 110.164 136.762C114.1 125.043 126.714 111.975 144.768 100.909C163.202 89.6101 184.626 82.1906 203.552 80.5558C241.062 78.2895 290.806 63.4971 321.154 50.7139C330.293 46.8757 339.59 47.5537 348.04 52.6741C362.811 61.6244 373.325 83.09 375.477 108.697V108.695C377.787 134.605 379.495 159.778 375.113 182.908C372.751 195.377 368.836 206.312 363.15 216.331C356.832 227.463 348.508 237.179 337.704 246.039C328.174 254.112 310.779 262.584 287.405 270.534C265.155 278.101 238.356 284.81 211.945 289.424C185.567 294.031 160.566 296.442 139.309 296.442ZM332.852 48.8823C329.057 48.8823 325.213 49.6806 321.397 51.2826C291.003 64.0848 241.174 78.9019 203.601 81.1709C184.777 82.7975 163.451 90.1842 145.096 101.436C127.162 112.429 114.647 125.376 110.757 136.959C108.524 143.646 105.322 151.762 101.618 161.158C92.2876 184.816 79.5127 217.22 70.5323 256.491C67.1725 268.516 70.71 277.964 81.0436 284.591C92.0279 291.636 110.227 295.403 135.134 295.789C157.223 296.125 183.749 293.719 211.841 288.809C238.219 284.2 264.986 277.502 287.208 269.944C310.511 262.018 327.835 253.587 337.31 245.561C348.06 236.75 356.335 227.089 362.614 216.025C368.268 206.066 372.158 195.194 374.509 182.794C378.877 159.742 377.169 134.616 374.864 108.752V108.749C372.729 83.3361 362.333 62.0536 347.726 53.2044C342.975 50.3285 337.956 48.8823 332.852 48.8823Z" fill="#7456AB"/>
</mask>
<g mask="url(#mask4_6009_17)">
<path d="M139.309 296.442C137.895 296.442 136.501 296.431 135.12 296.409C110.095 296.021 91.7874 292.221 80.7046 285.113C70.1167 278.323 66.489 268.642 69.9281 256.338C78.914 217.037 91.6999 184.609 101.036 160.932C104.737 151.544 107.936 143.435 110.164 136.762C114.1 125.043 126.714 111.975 144.768 100.909C163.202 89.6101 184.626 82.1906 203.552 80.5558C241.062 78.2895 290.806 63.4971 321.154 50.7139C330.293 46.8757 339.59 47.5537 348.04 52.6741C362.811 61.6244 373.325 83.09 375.477 108.697V108.695C377.787 134.605 379.495 159.778 375.113 182.908C372.751 195.377 368.836 206.312 363.15 216.331C356.832 227.463 348.508 237.179 337.704 246.039C328.174 254.112 310.779 262.584 287.405 270.534C265.155 278.101 238.356 284.81 211.945 289.424C185.567 294.031 160.566 296.442 139.309 296.442ZM332.852 48.8823C329.057 48.8823 325.213 49.6806 321.397 51.2826C291.003 64.0848 241.174 78.9019 203.601 81.1709C184.777 82.7975 163.451 90.1842 145.096 101.436C127.162 112.429 114.647 125.376 110.757 136.959C108.524 143.646 105.322 151.762 101.618 161.158C92.2876 184.816 79.5127 217.22 70.5323 256.491C67.1725 268.516 70.71 277.964 81.0436 284.591C92.0279 291.636 110.227 295.403 135.134 295.789C157.223 296.125 183.749 293.719 211.841 288.809C238.219 284.2 264.986 277.502 287.208 269.944C310.511 262.018 327.835 253.587 337.31 245.561C348.06 236.75 356.335 227.089 362.614 216.025C368.268 206.066 372.158 195.194 374.509 182.794C378.877 159.742 377.169 134.616 374.864 108.752V108.749C372.729 83.3361 362.333 62.0536 347.726 53.2044C342.975 50.3285 337.956 48.8823 332.852 48.8823Z" fill="#A06BFF"/>
</g>
<mask id="mask5_6009_17" style="mask-type:alpha" maskUnits="userSpaceOnUse" x="85" y="60" width="273" height="223">
<path d="M144.161 282.822C144.109 282.822 144.057 282.822 144.005 282.822C122.075 282.809 106.028 279.766 96.3118 273.782C87.315 268.243 84.0727 260.285 86.6753 250.132C92.8563 215.432 104.549 183.045 113.086 159.398C115.76 151.992 118.07 145.598 119.888 140.054C123.696 128.512 135.014 116.01 150.933 105.756C167.081 95.3539 186.442 88.3281 204.047 86.4856C220.256 85.3374 239.365 81.9748 260.855 76.4964C277.02 72.3738 294.191 67.0785 307.969 61.9663C316.033 58.9893 324.213 59.9051 331.63 64.6181C344.599 72.8577 353.833 91.7945 355.731 114.039C357.737 135.702 359.356 158.605 355.323 179.568C353.202 190.59 349.727 200.279 344.697 209.194C339.123 219.071 331.81 227.718 322.343 235.624C305.519 250.31 260.951 266.439 211.447 275.756C186.874 280.381 163.612 282.822 144.161 282.822ZM317.255 60.8291C314.24 60.8291 311.192 61.3868 308.163 62.5049C294.368 67.6225 277.173 72.926 260.992 77.0513C239.471 82.538 220.327 85.9033 204.094 87.0542C186.584 88.8886 167.316 95.8788 151.239 106.234C135.427 116.42 124.196 128.813 120.426 140.232C118.606 145.781 116.296 152.181 113.619 159.589C105.087 183.217 93.4058 215.577 87.2302 250.25C84.6933 260.154 87.8508 267.899 96.6098 273.293C106.235 279.219 122.182 282.235 144.005 282.248C144.057 282.248 144.109 282.248 144.161 282.248C163.579 282.248 186.802 279.81 211.341 275.19C260.754 265.889 305.21 249.812 321.971 235.184C331.389 227.319 338.658 218.724 344.2 208.907C349.197 200.049 352.652 190.415 354.763 179.456C358.781 158.567 357.163 135.71 355.162 114.086V114.083C353.278 92.0105 344.145 73.2404 331.323 65.0965C326.848 62.2589 322.092 60.8291 317.255 60.8291Z" fill="#7456AB"/>
</mask>
<g mask="url(#mask5_6009_17)">
<path d="M144.161 282.822C144.109 282.822 144.057 282.822 144.005 282.822C122.075 282.809 106.028 279.766 96.3118 273.782C87.315 268.243 84.0727 260.285 86.6753 250.132C92.8563 215.432 104.549 183.045 113.086 159.398C115.76 151.992 118.07 145.598 119.888 140.054C123.696 128.512 135.014 116.01 150.933 105.756C167.081 95.3539 186.442 88.3281 204.047 86.4856C220.256 85.3374 239.365 81.9748 260.855 76.4964C277.02 72.3738 294.191 67.0785 307.969 61.9663C316.033 58.9893 324.213 59.9051 331.63 64.6181C344.599 72.8577 353.833 91.7945 355.731 114.039C357.737 135.702 359.356 158.605 355.323 179.568C353.202 190.59 349.727 200.279 344.697 209.194C339.123 219.071 331.81 227.718 322.343 235.624C305.519 250.31 260.951 266.439 211.447 275.756C186.874 280.381 163.612 282.822 144.161 282.822ZM317.255 60.8291C314.24 60.8291 311.192 61.3868 308.163 62.5049C294.368 67.6225 277.173 72.926 260.992 77.0513C239.471 82.538 220.327 85.9033 204.094 87.0542C186.584 88.8886 167.316 95.8788 151.239 106.234C135.427 116.42 124.196 128.813 120.426 140.232C118.606 145.781 116.296 152.181 113.619 159.589C105.087 183.217 93.4058 215.577 87.2302 250.25C84.6933 260.154 87.8508 267.899 96.6098 273.293C106.235 279.219 122.182 282.235 144.005 282.248C144.057 282.248 144.109 282.248 144.161 282.248C163.579 282.248 186.802 279.81 211.341 275.19C260.754 265.889 305.21 249.812 321.971 235.184C331.389 227.319 338.658 218.724 344.2 208.907C349.197 200.049 352.652 190.415 354.763 179.456C358.781 158.567 357.163 135.71 355.162 114.086V114.083C353.278 92.0105 344.145 73.2404 331.323 65.0965C326.848 62.2589 322.092 60.8291 317.255 60.8291Z" fill="#A06BFF"/>
</g>
<mask id="mask6_6009_17" style="mask-type:alpha" maskUnits="userSpaceOnUse" x="102" y="72" width="236" height="198">
<path d="M149.071 269.315C132.165 269.315 119.666 267.027 111.886 262.502C104.489 258.199 101.637 251.958 103.411 243.945C106.525 213.092 117.794 179.078 126.023 154.239C127.313 150.341 128.532 146.661 129.601 143.348C133.344 131.8 143.106 120.174 157.089 110.605C171.19 100.961 188.038 94.5008 204.531 92.4176C215.934 91.4554 247.531 87.6636 294.776 73.2238C301.777 71.1024 308.855 72.2615 315.243 76.5836C326.386 84.1206 334.331 100.521 335.976 119.381C337.69 137.036 339.21 157.443 335.525 176.227C331.632 196.08 322.294 212.1 306.977 225.208C299.524 231.96 286.132 239.096 268.255 245.843C251.229 252.267 231.407 257.896 210.931 262.119C189.785 266.48 169.706 268.957 152.863 269.279C151.578 269.304 150.312 269.315 149.071 269.315ZM301.599 72.7153C299.385 72.7153 297.151 73.0516 294.929 73.7241C287.37 76.0341 272.014 80.5257 254.103 84.6401C235.297 88.9622 218.64 91.7533 204.588 92.9371C188.186 95.0093 171.42 101.436 157.387 111.037C143.5 120.54 133.808 132.071 130.101 143.509C129.032 146.822 127.813 150.505 126.523 154.406C118.3 179.226 107.039 213.215 103.934 244.016L103.928 244.046C102.2 251.819 104.967 257.877 112.151 262.054C120.303 266.794 134.38 269.115 152.857 268.76C169.67 268.437 189.714 265.966 210.83 261.611C231.278 257.393 251.076 251.772 268.078 245.359C285.894 238.636 299.226 231.534 306.638 224.823C321.867 211.791 331.149 195.864 335.02 176.134C338.691 157.419 337.174 137.055 335.462 119.438V119.436C333.83 100.726 325.974 84.476 314.956 77.0238C310.727 74.1615 306.2 72.7153 301.599 72.7153Z" fill="#7456AB"/>
</mask>
<g mask="url(#mask6_6009_17)">
<path d="M149.071 269.315C132.165 269.315 119.666 267.027 111.886 262.502C104.489 258.199 101.637 251.958 103.411 243.945C106.525 213.092 117.794 179.078 126.023 154.239C127.313 150.341 128.532 146.661 129.601 143.348C133.344 131.8 143.106 120.174 157.089 110.605C171.19 100.961 188.038 94.5008 204.531 92.4176C215.934 91.4554 247.531 87.6636 294.776 73.2238C301.777 71.1024 308.855 72.2615 315.243 76.5836C326.386 84.1206 334.331 100.521 335.976 119.381C337.69 137.036 339.21 157.443 335.525 176.227C331.632 196.08 322.294 212.1 306.977 225.208C299.524 231.96 286.132 239.096 268.255 245.843C251.229 252.267 231.407 257.896 210.931 262.119C189.785 266.48 169.706 268.957 152.863 269.279C151.578 269.304 150.312 269.315 149.071 269.315ZM301.599 72.7153C299.385 72.7153 297.151 73.0516 294.929 73.7241C287.37 76.0341 272.014 80.5257 254.103 84.6401C235.297 88.9622 218.64 91.7533 204.588 92.9371C188.186 95.0093 171.42 101.436 157.387 111.037C143.5 120.54 133.808 132.071 130.101 143.509C129.032 146.822 127.813 150.505 126.523 154.406C118.3 179.226 107.039 213.215 103.934 244.016L103.928 244.046C102.2 251.819 104.967 257.877 112.151 262.054C120.303 266.794 134.38 269.115 152.857 268.76C169.67 268.437 189.714 265.966 210.83 261.611C231.278 257.393 251.076 251.772 268.078 245.359C285.894 238.636 299.226 231.534 306.638 224.823C321.867 211.791 331.149 195.864 335.02 176.134C338.691 157.419 337.174 137.055 335.462 119.438V119.436C333.83 100.726 325.974 84.476 314.956 77.0238C310.727 74.1615 306.2 72.7153 301.599 72.7153Z" fill="#A06BFF"/>
</g>
<mask id="mask7_6009_17" style="mask-type:alpha" maskUnits="userSpaceOnUse" x="119" y="84" width="199" height="172">
<path d="M154.492 255.977C142.488 255.977 133.215 254.388 127.428 251.31C121.616 248.218 119.169 243.658 120.153 237.753C119.27 210.049 133.319 165.617 139.317 146.639C146.854 122.94 173.872 103.082 205.018 98.3498C229.777 95.8238 258.96 89.4322 276.396 85.6159C278.247 85.2113 279.986 84.8313 281.591 84.4813C287.548 83.2047 293.543 84.629 298.92 88.593C308.207 95.4383 314.836 109.282 316.225 124.725C317.846 140.414 318.907 157.107 315.73 172.889C312.34 189.729 304.453 203.436 291.613 214.795C278.994 226.783 247.118 240.025 210.406 248.527C192.754 252.614 175.914 255.129 161.706 255.802C159.208 255.919 156.799 255.977 154.492 255.977ZM285.836 84.5005C284.456 84.5005 283.072 84.6481 281.689 84.9434C280.084 85.2905 278.348 85.6705 276.498 86.0779C259.053 89.897 229.854 96.294 205.078 98.82C174.112 103.525 147.253 123.249 139.768 146.784C133.773 165.743 119.735 210.142 120.626 237.764V237.789L120.623 237.813C119.666 243.508 122.031 247.909 127.649 250.897C134.475 254.528 146.247 256.061 161.687 255.334C175.867 254.664 192.68 252.155 210.302 248.073C246.935 239.588 278.726 226.392 291.296 214.453C319.809 189.231 319.013 156.325 315.757 124.78V124.777C314.38 109.465 307.821 95.7472 298.641 88.9811C294.625 86.0123 290.262 84.5005 285.836 84.5005Z" fill="#7456AB"/>
</mask>
<g mask="url(#mask7_6009_17)">
<path d="M154.492 255.977C142.488 255.977 133.215 254.388 127.428 251.31C121.616 248.218 119.169 243.658 120.153 237.753C119.27 210.049 133.319 165.617 139.317 146.639C146.854 122.94 173.872 103.082 205.018 98.3498C229.777 95.8238 258.96 89.4322 276.396 85.6159C278.247 85.2113 279.986 84.8313 281.591 84.4813C287.548 83.2047 293.543 84.629 298.92 88.593C308.207 95.4383 314.836 109.282 316.225 124.725C317.846 140.414 318.907 157.107 315.73 172.889C312.34 189.729 304.453 203.436 291.613 214.795C278.994 226.783 247.118 240.025 210.406 248.527C192.754 252.614 175.914 255.129 161.706 255.802C159.208 255.919 156.799 255.977 154.492 255.977ZM285.836 84.5005C284.456 84.5005 283.072 84.6481 281.689 84.9434C280.084 85.2905 278.348 85.6705 276.498 86.0779C259.053 89.897 229.854 96.294 205.078 98.82C174.112 103.525 147.253 123.249 139.768 146.784C133.773 165.743 119.735 210.142 120.626 237.764V237.789L120.623 237.813C119.666 243.508 122.031 247.909 127.649 250.897C134.475 254.528 146.247 256.061 161.687 255.334C175.867 254.664 192.68 252.155 210.302 248.073C246.935 239.588 278.726 226.392 291.296 214.453C319.809 189.231 319.013 156.325 315.757 124.78V124.777C314.38 109.465 307.821 95.7472 298.641 88.9811C294.625 86.0123 290.262 84.5005 285.836 84.5005Z" fill="#A06BFF"/>
</g>
<mask id="mask8_6009_17" style="mask-type:alpha" maskUnits="userSpaceOnUse" x="135" y="95" width="163" height="148">
<path d="M160.129 242.956C152.792 242.956 146.909 242.081 142.95 240.298C138.688 238.377 136.652 235.443 136.898 231.58C134.536 224.041 134.976 211.184 138.202 193.365C140.553 180.382 144.5 164.554 149.036 149.936C156.348 126.489 177.459 109.424 205.507 104.288C215.338 103.044 225.57 101.548 235.467 100.102C248.266 98.2324 260.355 96.4691 268.409 95.742C275.188 95.1569 281.851 98.5687 287.168 105.346C292.209 111.77 295.599 120.781 296.476 130.07C298.863 151.331 297.441 162.337 295.938 169.551C293.056 183.373 286.616 194.767 276.252 204.382C265.675 215.079 240.256 226.818 209.917 235.009C190.537 240.236 173.071 242.956 160.129 242.956ZM269.901 96.0973C269.417 96.0973 268.933 96.1192 268.447 96.1602C260.404 96.8847 248.324 98.648 235.529 100.518C225.631 101.964 215.395 103.457 205.573 104.701C177.694 109.807 156.704 126.762 149.44 150.057C144.91 164.66 140.966 180.47 138.617 193.436C135.397 211.217 134.959 224.022 137.313 231.488L137.324 231.526L137.321 231.564C137.07 235.252 139.022 238.06 143.122 239.91C153.976 244.806 179.528 242.77 209.805 234.596C240.076 226.425 265.423 214.729 275.957 204.076C286.26 194.519 292.657 183.198 295.522 169.464C298.374 155.789 297.305 141.251 296.053 130.114V130.111C295.186 120.901 291.826 111.97 286.834 105.605C281.993 99.4325 276.028 96.0973 269.901 96.0973Z" fill="#7456AB"/>
</mask>
<g mask="url(#mask8_6009_17)">
<path d="M160.129 242.956C152.792 242.956 146.909 242.081 142.95 240.298C138.688 238.377 136.652 235.443 136.898 231.58C134.536 224.041 134.976 211.184 138.202 193.365C140.553 180.382 144.5 164.554 149.036 149.936C156.348 126.489 177.459 109.424 205.507 104.288C215.338 103.044 225.57 101.548 235.467 100.102C248.266 98.2324 260.355 96.4691 268.409 95.742C275.188 95.1569 281.851 98.5687 287.168 105.346C292.209 111.77 295.599 120.781 296.476 130.07C298.863 151.331 297.441 162.337 295.938 169.551C293.056 183.373 286.616 194.767 276.252 204.382C265.675 215.079 240.256 226.818 209.917 235.009C190.537 240.236 173.071 242.956 160.129 242.956ZM269.901 96.0973C269.417 96.0973 268.933 96.1192 268.447 96.1602C260.404 96.8847 248.324 98.648 235.529 100.518C225.631 101.964 215.395 103.457 205.573 104.701C177.694 109.807 156.704 126.762 149.44 150.057C144.91 164.66 140.966 180.47 138.617 193.436C135.397 211.217 134.959 224.022 137.313 231.488L137.324 231.526L137.321 231.564C137.07 235.252 139.022 238.06 143.122 239.91C153.976 244.806 179.528 242.77 209.805 234.596C240.076 226.425 265.423 214.729 275.957 204.076C286.26 194.519 292.657 183.198 295.522 169.464C298.374 155.789 297.305 141.251 296.053 130.114V130.111C295.186 120.901 291.826 111.97 286.834 105.605C281.993 99.4325 276.028 96.0973 269.901 96.0973Z" fill="#A06BFF"/>
</g>
<mask id="mask9_6009_17" style="mask-type:alpha" maskUnits="userSpaceOnUse" x="149" y="106" width="129" height="125">
<path d="M166.223 230.544C163.188 230.544 160.627 230.268 158.639 229.702C155.733 228.871 154.057 227.439 153.661 225.44C148.166 221.206 148.527 206.831 149.801 195.5C151.239 182.72 154.585 166.918 158.751 153.225C162.352 141.445 167.849 132.265 175.561 125.157C183.437 117.899 193.391 113.014 205.994 110.217C225.078 107.106 244.403 105.846 255.234 107.005C260.508 107.593 265.642 111.01 269.691 116.622C273.477 121.874 276.041 128.722 276.722 135.412C278.955 153.077 279.174 175.694 260.888 193.964C252.424 203.302 233.299 213.611 209.736 221.528C192.519 227.313 176.611 230.542 166.223 230.544ZM245.806 106.953C234.914 106.953 220.422 108.243 206.067 110.583C193.541 113.361 183.645 118.219 175.818 125.431C168.155 132.492 162.691 141.617 159.112 153.332C151.321 178.922 144.568 218.133 153.945 225.183L154.003 225.227L154.016 225.298C154.358 227.182 155.949 228.54 158.743 229.339C167.469 231.832 187.439 228.625 209.621 221.17C233.126 213.272 252.194 203.004 260.623 193.701C278.799 175.541 278.578 153.031 276.355 135.45V135.444C275.68 128.818 273.143 122.033 269.393 116.833C265.407 111.305 260.366 107.945 255.199 107.369C252.536 107.09 249.362 106.953 245.806 106.953Z" fill="#7456AB"/>
</mask>
<g mask="url(#mask9_6009_17)">
<path d="M166.223 230.544C163.188 230.544 160.627 230.268 158.639 229.702C155.733 228.871 154.057 227.439 153.661 225.44C148.166 221.206 148.527 206.831 149.801 195.5C151.239 182.72 154.585 166.918 158.751 153.225C162.352 141.445 167.849 132.265 175.561 125.157C183.437 117.899 193.391 113.014 205.994 110.217C225.078 107.106 244.403 105.846 255.234 107.005C260.508 107.593 265.642 111.01 269.691 116.622C273.477 121.874 276.041 128.722 276.722 135.412C278.955 153.077 279.174 175.694 260.888 193.964C252.424 203.302 233.299 213.611 209.736 221.528C192.519 227.313 176.611 230.542 166.223 230.544ZM245.806 106.953C234.914 106.953 220.422 108.243 206.067 110.583C193.541 113.361 183.645 118.219 175.818 125.431C168.155 132.492 162.691 141.617 159.112 153.332C151.321 178.922 144.568 218.133 153.945 225.183L154.003 225.227L154.016 225.298C154.358 227.182 155.949 228.54 158.743 229.339C167.469 231.832 187.439 228.625 209.621 221.17C233.126 213.272 252.194 203.004 260.623 193.701C278.799 175.541 278.578 153.031 276.355 135.45V135.444C275.68 128.818 273.143 122.033 269.393 116.833C265.407 111.305 260.366 107.945 255.199 107.369C252.536 107.09 249.362 106.953 245.806 106.953Z" fill="#A06BFF"/>
</g>
<mask id="mask10_6009_17" style="mask-type:alpha" maskUnits="userSpaceOnUse" x="161" y="114" width="97" height="106">
<path d="M173.535 219.798C172.226 219.798 171.206 219.631 170.525 219.284C168.341 219.601 166.512 218.926 165.088 217.286C160.919 212.485 160.993 200.517 161.788 191.318C162.734 180.374 165.235 167.362 168.475 156.514C172.146 144.242 176.233 136.065 181.728 130.007C187.587 123.545 195.457 119.141 206.491 116.147C219.091 113.348 233.058 114.184 242.076 118.277C250.16 121.986 256.002 132.615 256.978 140.748C259.54 157.556 255.688 171.954 245.535 183.54C241.762 188.281 235.884 193.223 228.074 198.229C221.311 202.562 213.276 206.805 204.831 210.495C191.611 216.28 179.541 219.798 173.535 219.798ZM170.58 218.948L170.626 218.973C171.277 219.32 172.267 219.484 173.543 219.484C186.764 219.484 230.671 201.687 245.28 183.335C255.373 171.818 259.198 157.509 256.65 140.798V140.792C255.685 132.747 249.917 122.235 241.934 118.572C232.976 114.507 219.088 113.679 206.559 116.462C195.594 119.436 187.775 123.807 181.958 130.223C176.499 136.246 172.433 144.382 168.776 156.604C165.542 167.436 163.048 180.421 162.103 191.345C161.313 200.481 161.23 212.36 165.323 217.073C166.682 218.636 168.431 219.271 170.523 218.953L170.58 218.948Z" fill="#7456AB"/>
</mask>
<g mask="url(#mask10_6009_17)">
<path d="M173.535 219.798C172.226 219.798 171.206 219.631 170.525 219.284C168.341 219.601 166.512 218.926 165.088 217.286C160.919 212.485 160.993 200.517 161.788 191.318C162.734 180.374 165.235 167.362 168.475 156.514C172.146 144.242 176.233 136.065 181.728 130.007C187.587 123.545 195.457 119.141 206.491 116.147C219.091 113.348 233.058 114.184 242.076 118.277C250.16 121.986 256.002 132.615 256.978 140.748C259.54 157.556 255.688 171.954 245.535 183.54C241.762 188.281 235.884 193.223 228.074 198.229C221.311 202.562 213.276 206.805 204.831 210.495C191.611 216.28 179.541 219.798 173.535 219.798ZM170.58 218.948L170.626 218.973C171.277 219.32 172.267 219.484 173.543 219.484C186.764 219.484 230.671 201.687 245.28 183.335C255.373 171.818 259.198 157.509 256.65 140.798V140.792C255.685 132.747 249.917 122.235 241.934 118.572C232.976 114.507 219.088 113.679 206.559 116.462C195.594 119.436 187.775 123.807 181.958 130.223C176.499 136.246 172.433 144.382 168.776 156.604C165.542 167.436 163.048 180.421 162.103 191.345C161.313 200.481 161.23 212.36 165.323 217.073C166.682 218.636 168.431 219.271 170.523 218.953L170.58 218.948Z" fill="#A06BFF"/>
</g>
<mask id="mask11_6009_17" style="mask-type:alpha" maskUnits="userSpaceOnUse" x="172" y="121" width="66" height="95">
<path d="M181.392 215.088C180.083 215.088 178.91 214.699 177.882 213.918C175.304 211.963 172.354 206.504 172.928 191.607C173.314 181.621 175.279 169.734 178.185 159.808C181.619 148.077 183.987 140.543 187.879 134.868C191.906 128.996 197.437 125.291 206.972 122.087C212.226 120.321 217.21 120.745 221.781 123.345C231.664 128.971 236.541 142.935 237.219 146.09C238.484 151.984 237.511 158.537 234.324 165.568C231.579 171.621 227.197 178.042 221.294 184.661C210.627 196.621 196.761 207.152 187.344 213.018C185.127 214.396 183.139 215.088 181.392 215.088ZM213.194 121.289C211.199 121.289 209.154 121.639 207.06 122.344C197.587 125.529 192.095 129.201 188.104 135.021C184.235 140.666 181.873 148.179 178.448 159.885C173.15 177.982 169.957 207.562 178.046 213.702C180.342 215.446 183.421 215.137 187.196 212.786C196.597 206.93 210.439 196.419 221.087 184.478C226.97 177.881 231.338 171.481 234.069 165.453C237.232 158.477 238.2 151.981 236.948 146.147C236.275 143.017 231.437 129.157 221.642 123.583C218.965 122.055 216.138 121.289 213.194 121.289Z" fill="#7456AB"/>
</mask>
<g mask="url(#mask11_6009_17)">
<path d="M181.392 215.088C180.083 215.088 178.91 214.699 177.882 213.918C175.304 211.963 172.354 206.504 172.928 191.607C173.314 181.621 175.279 169.734 178.185 159.808C181.619 148.077 183.987 140.543 187.879 134.868C191.906 128.996 197.437 125.291 206.972 122.087C212.226 120.321 217.21 120.745 221.781 123.345C231.664 128.971 236.541 142.935 237.219 146.09C238.484 151.984 237.511 158.537 234.324 165.568C231.579 171.621 227.197 178.042 221.294 184.661C210.627 196.621 196.761 207.152 187.344 213.018C185.127 214.396 183.139 215.088 181.392 215.088ZM213.194 121.289C211.199 121.289 209.154 121.639 207.06 122.344C197.587 125.529 192.095 129.201 188.104 135.021C184.235 140.666 181.873 148.179 178.448 159.885C173.15 177.982 169.957 207.562 178.046 213.702C180.342 215.446 183.421 215.137 187.196 212.786C196.597 206.93 210.439 196.419 221.087 184.478C226.97 177.881 231.338 171.481 234.069 165.453C237.232 158.477 238.2 151.981 236.948 146.147C236.275 143.017 231.437 129.157 221.642 123.583C218.965 122.055 216.138 121.289 213.194 121.289Z" fill="#A06BFF"/>
</g>
</svg>
